PathFileType	4	(X/Y/Z)	16_2_50_p0_0-195_filt_butterworth.trc
DataRate	CameraRate	NumFrames	NumMarkers	Units	OrigDataRate	OrigDataStartFrame	OrigNumFrames
59.0	59.0	5	27	m	59.0	48	195
Frame#	Time	RHip			RKnee			RAnkle			RBigToe			RSmallToe			RHeel			LHip			LKnee			LAnkle			LBigToe			LSmallToe			LHeel			Neck			Head			Nose			RShoulder			RElbow			RWrist			RThumb			RIndex			RPinky			LShoulder			LElbow			LWrist			LThumb			LIndex			LPinky			
		X1	Y1	Z1	X2	Y2	Z2	X3	Y3	Z3	X4	Y4	Z4	X5	Y5	Z5	X6	Y6	Z6	X7	Y7	Z7	X8	Y8	Z8	X9	Y9	Z9	X10	Y10	Z10	X11	Y11	Z11	X12	Y12	Z12	X13	Y13	Z13	X14	Y14	Z14	X15	Y15	Z15	X16	Y16	Z16	X17	Y17	Z17	X18	Y18	Z18	X19	Y19	Z19	X20	Y20	Z20	X21	Y21	Z21	X22	Y22	Z22	X23	Y23	Z23	X24	Y24	Z24	X25	Y25	Z25	X26	Y26	Z26	X27	Y27	Z27	
48	0.8135593220338984	0.28406112028739805	0.5210007129379146	0.512961835792545	0.2913125944185955	0.6095515465965121	0.9341847749251551	0.3025393875392645	0.699917908089821	1.355757100422465	0.24305586604858534	0.5286138079712491	1.405834906860426	0.32146226947883116	0.531658695081761	1.3951634470803294	0.2725135312553833	0.7959160556858412	1.416095985990435	0.05818828675163325	0.5664733562500827	0.509447217207292	0.05785385452571041	0.618410451676379	0.9352472290667747	0.08019806743106175	0.7053380072418075	1.327452239209081	0.06404745223264044	0.5107536701536336	1.3855904922125295	0.0114404774137711	0.5557625603540447	1.3750154430849806	0.10694758377965716	0.7967770651490748	1.4014078609525213	0.16779102922199704	0.4684014735041816	-0.07335472271332108	0.13421133335776664	0.37576778548783873	-0.3181724363635851	0.11651314607389869	0.31039419518537475	-0.1784466791437444	0.3423684132940845	0.5002886050610186	0.011409785631192762	0.4107973246643672	0.45194386108275597	0.3015921944154744	0.3329568360144039	0.4090448887302799	0.5499821515890461	0.23533668122681484	0.3840778907643767	0.6619386679055641	0.25317166481654896	0.3814641635930205	0.6819019149709358	0.3112070026909337	0.4336075722115033	0.6902166427645243	0.011993433249311857	0.5250714263628333	-0.0011903569907460243	-0.06411657246525294	0.531925724919557	0.27861220879543475	0.008372512533397977	0.439565415449237	0.5124510834613931	0.10143521163976309	0.43177697757168365	0.600575258785392	0.07947114866041219	0.3951990465481428	0.640111052508036	0.033346430965798805	0.39603703802339735	0.6457207689074669
49	0.8305084745762712	0.2846654584881448	0.5217914770911927	0.5165981671264654	0.29198930597003964	0.6107585705512716	0.9392314856299997	0.302577258332146	0.6996649642127996	1.3567525312493196	0.2437554441970909	0.5309720470247952	1.406950267383374	0.32238754170215955	0.5336696048345588	1.3958354386349847	0.27303488484349403	0.7940879520642363	1.4150992003029277	0.05839233832444722	0.563584950548764	0.5118290925349361	0.05813411296083837	0.6174083498884748	0.9390816691018029	0.08044485958056341	0.7053226601375281	1.3282763277540317	0.06401701389452887	0.5106929099983273	1.3870771177876444	0.011452180486035192	0.5561018624230675	1.3780604076607479	0.10652529273770016	0.7965219653480191	1.4030629941722992	0.16768940347588743	0.46841232364300467	-0.07324876599908112	0.1391671549063244	0.3764515942692474	-0.3187808366882699	0.11664738790492762	0.31037404055150397	-0.17837766694033125	0.3428286055709027	0.500310654632832	0.011759920443273226	0.4122968440736722	0.45248115827968904	0.30122383039114925	0.34328670487686364	0.39922651448707513	0.5496657930910854	0.24669672378420188	0.37595139090748575	0.6617234251280332	0.2653775907921823	0.3797977749691132	0.6838378376508889	0.32556105642656663	0.4398257181292379	0.694555301566736	0.012054526719079252	0.5249261672459156	-0.0012370036683525371	-0.06449053683953093	0.5317796444512862	0.2782030934489188	0.00206532352322093	0.44861235681495676	0.5168242917079838	0.08915981508236072	0.4358255017243694	0.6067595499427803	0.06544613591235217	0.3896387281574001	0.6406298964444935	0.02218892523043707	0.41465418542426735	0.6520357057425608
50	0.847457627118644	0.2850885838731278	0.5226394183126315	0.5202284414169747	0.29248076176904114	0.6118292436479786	0.9453083408515369	0.3028870704637223	0.6992528605481046	1.3568574049615796	0.24434538515170615	0.5330041704304246	1.4078532335748515	0.3232938636179489	0.5333079059768058	1.3956369342259534	0.2731363662758083	0.793953672956943	1.4148014460523377	0.05879309211617514	0.5621032578535805	0.5141457155664121	0.05937299978656868	0.6175417808569535	0.9409949844945282	0.08072910211993048	0.705476212364273	1.330668124178646	0.06366286074255814	0.5092057493260772	1.3866971444633618	0.011603759370116668	0.5564408734473039	1.3808895489664212	0.10651560613177914	0.7961347393731893	1.404214903151829	0.1675945323711408	0.46839635942132396	-0.07380743847996656	0.14424378944478888	0.3769675448196001	-0.3199709970234789	0.11704419171466655	0.31040393481860956	-0.17838548551417052	0.34436335798237283	0.5001567768925299	0.01269980013368336	0.4131531399886122	0.4529511183841457	0.3002553414489357	0.35352283754649627	0.39104444770585167	0.5502450741177655	0.257992658152994	0.3768617069614264	0.6636579714248544	0.27713278147984227	0.3840512529075143	0.6869558498314641	0.3403170711054686	0.4348706576852136	0.695874956579658	0.012062902304500498	0.5249208984512006	-0.00127726185215346	-0.06547828704297094	0.5311561376523801	0.277657160082015	-0.0037532984321588564	0.4496679266203801	0.5184560691782374	0.07608881772179943	0.42814997568922053	0.6087379717467345	0.054832928478249734	0.38133032997286914	0.6400155170082851	0.007963588003095828	0.4321745129059365	0.6564262866993021
51	0.864406779661017	0.2852270662516847	0.5232812637567326	0.5229613115608679	0.2926793221131931	0.6126754100334587	0.9502995618112835	0.30321013900973326	0.6989024274911458	1.3563097190320463	0.24464388953634217	0.5340347469306266	1.408262055398265	0.32414477248627493	0.5324619176916857	1.3950311848553731	0.27310414273124084	0.7940731683215267	1.414648157332868	0.05807887939929124	0.5615127500002269	0.5154528330061514	0.06092708437519745	0.617967284387417	0.9414494108867792	0.08103086732921602	0.7058355805171004	1.333999406667401	0.06287163165514477	0.5054438717139255	1.3851475321320248	0.011927558005093427	0.5566691803993028	1.3827344518928015	0.10713541008801304	0.795733105497497	1.4047761878034932	0.16751377131608813	0.4683044885006895	-0.07531133383325685	0.1486496491747228	0.3775821983167327	-0.3215562391521778	0.11801406839733938	0.31055936235511267	-0.17877264937209092	0.3467876072687723	0.49973016516111346	0.013877678277210844	0.41329338320126235	0.453039847466137	0.29894425541822595	0.36145216058569246	0.3861362673558207	0.552270585900619	0.26868812570390077	0.38379049764253537	0.6682378352491628	0.2877872207570211	0.3954576386064471	0.6915439508515677	0.35347801920908867	0.42782601798685366	0.6954823155766352	0.012051853206891448	0.5249563020354509	-0.0013102584976792655	-0.06682454028636214	0.530262959082798	0.27731874423188435	-0.01065138255940907	0.4469914149708615	0.518820246281067	0.06435578120462093	0.4125320784438783	0.6081036081536296	0.04828014814258119	0.37460212760442574	0.6401260382518241	-0.006846049358537646	0.4433234346448601	0.6580247044666218
52	0.8813559322033898	0.28511837129172274	0.5234323799485239	0.5237983669677261	0.2926927222598674	0.6130885846195945	0.9527459721664395	0.30333886247579334	0.6987998675084044	1.3555423506594695	0.24471867625566154	0.5342260475375249	1.4083088168987827	0.3245081016159312	0.5320696985957761	1.3945736631745445	0.27309214888113476	0.7944779038457499	1.4147216661226574	0.055858298824072866	0.5619210053334828	0.5153266346859241	0.06200191204227198	0.6187172477313724	0.9415312020239908	0.08127806370439913	0.7062908410780746	1.3366671383377768	0.06185024980237758	0.5003676768037534	1.3836306209699396	0.012322712155617078	0.556699467319332	1.3832815330174937	0.10835062174423969	0.7960812711530747	1.4055563117303491	0.16740790362455457	0.46809874310374733	-0.07764732060798919	0.1526595895362655	0.37925124272046007	-0.32298861241002474	0.1196428622284342	0.3108163042799587	-0.18012089148309643	0.3490607957634846	0.499167073845912	0.014657225628124897	0.41303401435995013	0.45269455945899517	0.29800878631325933	0.3664600916479806	0.3844756532485424	0.5554368027072991	0.27784472892903406	0.39217995108793136	0.6741890069478497	0.29724076731463267	0.4129395422255155	0.6976035575810626	0.36268222619830665	0.42475494210725273	0.6949982300860575	0.012046210412119594	0.5249799841622136	-0.001322183026029497	-0.06793237597535523	0.5298978207450936	0.27724251460275046	-0.018717609593536275	0.444857418821185	0.519926163884568	0.05492354321106982	0.3964279026353471	0.6088958431353211	0.043800715281453524	0.37191366940683657	0.6427409955678695	-0.01955773595343577	0.44743538738808925	0.6578613308805623
